<svg width="111" height="287" viewBox="0 0 111 287" fill="none" xmlns="http://www.w3.org/2000/svg">
<path d="M110.497 286.88C88.5103 286.88 69.2396 280.801 52.685 268.644C36.389 256.228 23.585 239.156 14.273 217.428C5.21964 195.441 0.692969 170.351 0.692969 142.156C0.692969 113.961 5.21964 89.2587 14.273 68.048C23.3263 46.5787 36.1303 29.8947 52.685 17.996C69.2396 5.83866 88.5103 -0.240007 110.497 -0.240007C132.484 -0.240007 151.625 5.83866 167.921 17.996C184.476 29.8947 197.28 46.5787 206.333 68.048C215.645 89.2587 220.301 113.961 220.301 142.156C220.301 170.609 215.645 195.7 206.333 217.428C197.28 239.156 184.476 256.228 167.921 268.644C151.625 280.801 132.484 286.88 110.497 286.88ZM110.497 258.944C126.276 258.944 139.726 254.288 150.849 244.976C161.972 235.405 170.508 221.955 176.457 204.624C182.406 187.035 185.381 166.083 185.381 141.768C185.381 117.712 182.406 97.148 176.457 80.076C170.766 63.004 162.36 50.0707 151.237 41.276C140.114 32.2226 126.534 27.696 110.497 27.696C94.4596 27.696 80.8796 32.2226 69.757 41.276C58.6343 50.3293 50.0983 63.392 44.149 80.464C38.4583 97.2773 35.613 117.712 35.613 141.768C35.613 166.083 38.5876 187.035 44.537 204.624C50.4863 222.213 59.0223 235.664 70.145 244.976C81.2676 254.288 94.7183 258.944 110.497 258.944Z" fill="white"/>
</svg>
