<svg width="640" height="360" viewBox="0 0 640 360" fill="none" xmlns="http://www.w3.org/2000/svg">
<g clip-path="url(#clip0_834_126)">
<rect width="640" height="360" fill="#242424"/>
<path d="M284 0H356V360H284V0Z" fill="url(#paint0_linear_834_126)"/>
<rect x="356" width="71" height="360" fill="url(#paint1_linear_834_126)"/>
<rect width="71" height="360" transform="matrix(-1 0 0 1 284 0)" fill="url(#paint2_linear_834_126)"/>
<rect x="427" width="71" height="360" fill="url(#paint3_linear_834_126)"/>
<rect width="71" height="360" transform="matrix(-1 0 0 1 213 0)" fill="url(#paint4_linear_834_126)"/>
<rect x="498" width="71" height="360" fill="url(#paint5_linear_834_126)"/>
<rect width="71" height="360" transform="matrix(-1 0 0 1 142 0)" fill="url(#paint6_linear_834_126)"/>
<rect x="569" width="71" height="360" fill="url(#paint7_linear_834_126)"/>
<rect width="71" height="360" transform="matrix(-1 0 0 1 71 0)" fill="url(#paint8_linear_834_126)"/>
</g>
<defs>
<linearGradient id="paint0_linear_834_126" x1="320" y1="0" x2="320" y2="360" gradientUnits="userSpaceOnUse">
<stop stop-color="#242424" stop-opacity="0"/>
<stop offset="0.75" stop-color="#323D3C"/>
<stop offset="0.95" stop-color="#142F00" stop-opacity="0.5"/>
</linearGradient>
<linearGradient id="paint1_linear_834_126" x1="391.5" y1="0" x2="391.5" y2="360" gradientUnits="userSpaceOnUse">
<stop stop-color="#242424" stop-opacity="0"/>
<stop offset="0.65" stop-color="#323D3C"/>
<stop offset="0.95" stop-color="#142F00" stop-opacity="0.5"/>
</linearGradient>
<linearGradient id="paint2_linear_834_126" x1="35.5" y1="0" x2="35.5" y2="360" gradientUnits="userSpaceOnUse">
<stop stop-color="#242424" stop-opacity="0"/>
<stop offset="0.65" stop-color="#323D3C"/>
<stop offset="0.95" stop-color="#142F00" stop-opacity="0.5"/>
</linearGradient>
<linearGradient id="paint3_linear_834_126" x1="462.5" y1="0" x2="462.5" y2="360" gradientUnits="userSpaceOnUse">
<stop stop-color="#242424" stop-opacity="0"/>
<stop offset="0.55" stop-color="#323D3C"/>
<stop offset="0.95" stop-color="#142F00" stop-opacity="0.5"/>
</linearGradient>
<linearGradient id="paint4_linear_834_126" x1="35.5" y1="0" x2="35.5" y2="360" gradientUnits="userSpaceOnUse">
<stop stop-color="#242424" stop-opacity="0"/>
<stop offset="0.55" stop-color="#323D3C"/>
<stop offset="0.95" stop-color="#142F00" stop-opacity="0.5"/>
</linearGradient>
<linearGradient id="paint5_linear_834_126" x1="533.5" y1="0" x2="533.5" y2="360" gradientUnits="userSpaceOnUse">
<stop stop-color="#242424" stop-opacity="0"/>
<stop offset="0.45" stop-color="#323D3C"/>
<stop offset="0.95" stop-color="#142F00" stop-opacity="0.5"/>
</linearGradient>
<linearGradient id="paint6_linear_834_126" x1="35.5" y1="0" x2="35.5" y2="360" gradientUnits="userSpaceOnUse">
<stop stop-color="#242424" stop-opacity="0"/>
<stop offset="0.45" stop-color="#323D3C"/>
<stop offset="0.95" stop-color="#142F00" stop-opacity="0.5"/>
</linearGradient>
<linearGradient id="paint7_linear_834_126" x1="604.5" y1="0" x2="604.5" y2="360" gradientUnits="userSpaceOnUse">
<stop stop-color="#242424" stop-opacity="0"/>
<stop offset="0.35" stop-color="#323D3C"/>
<stop offset="0.95" stop-color="#142F00" stop-opacity="0.5"/>
</linearGradient>
<linearGradient id="paint8_linear_834_126" x1="35.5" y1="0" x2="35.5" y2="360" gradientUnits="userSpaceOnUse">
<stop stop-color="#242424" stop-opacity="0"/>
<stop offset="0.35" stop-color="#323D3C"/>
<stop offset="0.95" stop-color="#142F00" stop-opacity="0.5"/>
</linearGradient>
<clipPath id="clip0_834_126">
<rect width="640" height="360" fill="white"/>
</clipPath>
</defs>
</svg>
