<svg width="28" height="28" viewBox="0 0 28 28" fill="none" xmlns="http://www.w3.org/2000/svg">
<rect width="28" height="28" rx="14" fill="white"/>
<path d="M14.0002 22.6897C11.5864 22.6897 9.53468 21.8448 7.84503 20.1552C6.15537 18.4655 5.31055 16.4138 5.31055 14C5.31055 11.5862 6.15537 9.5345 7.84503 7.84485C9.53468 6.15519 11.5864 5.31036 14.0002 5.31036C14.2255 5.31036 14.4468 5.31841 14.664 5.3345C14.8812 5.35059 15.0945 5.37473 15.3036 5.40692C14.6439 5.87358 14.1169 6.48105 13.7226 7.22933C13.3284 7.97761 13.1312 8.78623 13.1312 9.65519C13.1312 11.1035 13.6381 12.3345 14.6519 13.3483C15.6657 14.3621 16.8968 14.869 18.345 14.869C19.2301 14.869 20.0427 14.6719 20.783 14.2776C21.5232 13.8834 22.1266 13.3563 22.5933 12.6966C22.6255 12.9058 22.6496 13.119 22.6657 13.3362C22.6818 13.5535 22.6899 13.7747 22.6899 14C22.6899 16.4138 21.845 18.4655 20.1554 20.1552C18.4657 21.8448 16.414 22.6897 14.0002 22.6897ZM14.0002 20.7586C15.4163 20.7586 16.6876 20.3684 17.814 19.5879C18.9404 18.8075 19.7611 17.7897 20.2761 16.5345C19.9542 16.615 19.6324 16.6793 19.3105 16.7276C18.9887 16.7759 18.6669 16.8 18.345 16.8C16.3657 16.8 14.6801 16.104 13.2881 14.7121C11.8962 13.3201 11.2002 11.6345 11.2002 9.65519C11.2002 9.33335 11.2243 9.01151 11.2726 8.68967C11.3209 8.36784 11.3853 8.046 11.4657 7.72416C10.2105 8.2391 9.19273 9.05979 8.41227 10.1862C7.63181 11.3127 7.24158 12.5839 7.24158 14C7.24158 15.8667 7.90135 17.4598 9.22089 18.7793C10.5404 20.0989 12.1335 20.7586 14.0002 20.7586Z" fill="#242424"/>
</svg>
