<svg width="28" height="28" viewBox="0 0 28 28" fill="none" xmlns="http://www.w3.org/2000/svg">
<rect width="28" height="28" rx="14" fill="#242424"/>
<path d="M13.2102 7.68027V5.31036H14.7902V7.68027H13.2102ZM13.2102 22.6897V20.3198H14.7902V22.6897H13.2102ZM20.32 14.79V13.2101H22.6899V14.79H20.32ZM5.31055 14.79V13.2101H7.68045V14.79H5.31055ZM19.293 9.81319L18.187 8.70723L19.5695 7.28529L20.7149 8.43074L19.293 9.81319ZM8.43092 20.7148L7.28547 19.5693L8.70741 18.1869L9.81337 19.2928L8.43092 20.7148ZM19.5695 20.7148L18.187 19.2928L19.293 18.1869L20.7149 19.5693L19.5695 20.7148ZM8.70741 9.81319L7.28547 8.43074L8.43092 7.28529L9.81337 8.70723L8.70741 9.81319ZM14.0002 18.7398C12.6836 18.7398 11.5645 18.279 10.6428 17.3574C9.72121 16.4358 9.26039 15.3166 9.26039 14C9.26039 12.6834 9.72121 11.5643 10.6428 10.6427C11.5645 9.72102 12.6836 9.26021 14.0002 9.26021C15.3168 9.26021 16.4359 9.72102 17.3576 10.6427C18.2792 11.5643 18.74 12.6834 18.74 14C18.74 15.3166 18.2792 16.4358 17.3576 17.3574C16.4359 18.279 15.3168 18.7398 14.0002 18.7398ZM14.0002 17.1599C14.8823 17.1599 15.6295 16.8538 16.2417 16.2416C16.854 15.6293 17.1601 14.8822 17.1601 14C17.1601 13.1179 16.854 12.3707 16.2417 11.7585C15.6295 11.1463 14.8823 10.8401 14.0002 10.8401C13.1181 10.8401 12.3709 11.1463 11.7587 11.7585C11.1464 12.3707 10.8403 13.1179 10.8403 14C10.8403 14.8822 11.1464 15.6293 11.7587 16.2416C12.3709 16.8538 13.1181 17.1599 14.0002 17.1599Z" fill="white"/>
</svg>
