<svg width="24" height="24" viewBox="0 0 24 24" fill="none" xmlns="http://www.w3.org/2000/svg">
<rect width="24" height="24" fill="#242424"/>
<path d="M9.16949 18.561C9.16949 18.8035 8.97166 19 8.72759 19H6.8465C6.60243 19 6.4046 18.8035 6.4046 18.561V10.7278C6.4046 10.4853 6.60243 10.2888 6.8465 10.2888H8.72759C8.97166 10.2888 9.16949 10.4853 9.16949 10.7278V18.561ZM7.78704 9.55042C6.8001 9.55042 6 8.75562 6 7.77521C6 6.7948 6.8001 6 7.78704 6C8.77399 6 9.57409 6.7948 9.57409 7.77521C9.57409 8.75562 8.77404 9.55042 7.78704 9.55042ZM19 18.5964C19 18.8193 18.8181 19 18.5937 19H16.5751C16.3508 19 16.1688 18.8193 16.1688 18.5964V14.9222C16.1688 14.374 16.3307 12.5203 14.7269 12.5203C13.4829 12.5203 13.2305 13.7891 13.1799 14.3585V18.5964C13.1799 18.8193 12.998 19 12.7736 19H10.8213C10.5969 19 10.415 18.8193 10.415 18.5964V10.6924C10.415 10.4695 10.5969 10.2888 10.8213 10.2888H12.7736C12.9979 10.2888 13.1799 10.4695 13.1799 10.6924V11.3758C13.6411 10.6882 14.3267 10.1574 15.7863 10.1574C19.0185 10.1574 19 13.1571 19 14.8053V18.5964Z" fill="white"/>
</svg>
