<svg width="24" height="24" viewBox="0 0 24 24" fill="none" xmlns="http://www.w3.org/2000/svg">
<rect width="24" height="24" fill="white"/>
<path d="M18.9998 12.4067C18.9998 14.1288 18.7112 15.5257 18.3551 15.5257C17.9989 15.5257 17.7104 14.1292 17.7104 12.4067C17.7104 10.6841 17.9991 9.2876 18.3551 9.2876C18.7111 9.2876 18.9998 10.684 18.9998 12.4067Z" fill="#242424"/>
<path d="M17.3549 12.4067C17.3549 14.3292 16.5342 15.8884 15.5217 15.8884C14.5092 15.8884 13.6885 14.3292 13.6885 12.4067C13.6885 10.4841 14.5091 8.92499 15.5216 8.92499C16.534 8.92499 17.3548 10.4836 17.3548 12.4067" fill="#242424"/>
<path d="M13.3328 12.4067C13.3328 14.4491 11.6913 16.1049 9.66645 16.1049C7.64164 16.1049 6 14.4487 6 12.4067C6 10.3646 7.64152 8.70831 9.66645 8.70831C11.6914 8.70831 13.3328 10.3642 13.3328 12.4067Z" fill="#242424"/>
</svg>
