<svg width="134" height="357" viewBox="0 0 134 357" fill="none" xmlns="http://www.w3.org/2000/svg">
<path d="M0 299L30 288H58L0 312V299Z" fill="white" fill-opacity="0.15"/>
<rect x="30" width="28" height="287" fill="white" fill-opacity="0.15"/>
<path d="M96 288L0 333V317.5L68 288H96Z" fill="white" fill-opacity="0.15"/>
<rect x="68" width="28" height="287" fill="white" fill-opacity="0.15"/>
<path d="M0 337.5L106 288H134L0 357V337.5Z" fill="white" fill-opacity="0.15"/>
<rect x="106" width="28" height="287" fill="white" fill-opacity="0.15"/>
<mask id="mask0_743_141" style="mask-type:alpha" maskUnits="userSpaceOnUse" x="0" y="0" width="134" height="357">
<path d="M0 299L30 288H58L0 312V299Z" fill="white"/>
<rect x="30" width="28" height="287" fill="white"/>
<path d="M96 288L0 333V317.5L68 288H96Z" fill="white"/>
<rect x="68" width="28" height="287" fill="white"/>
<path d="M0 337.5L106 288H134L0 357V337.5Z" fill="white"/>
<rect x="106" width="28" height="287" fill="white"/>
</mask>
<g mask="url(#mask0_743_141)">
<path fill-rule="evenodd" clip-rule="evenodd" d="M49.5 3L48.5 4.5V6L54 7.5V8.5L51.5 11L50.5 10.5V7.5H49.5L49 13L50 16.5V18L51 19L52.5 18H54.5L55 20L52.5 22.5H51L49.5 25V26L58.5 30.5L61 28.5L63 27L64 25.5L66 26.5L64 28.5L61.5 31L65.5 34.5L68 32.5H69L70 33.5L70.5 34.5L69.5 35.5L68 36.5L67 37.5V39L70.5 41.5L69 42H67.5V43.5L69 44.5L71 46H72V48.5L71.5 49H70.5L65.5 47L62 50.5L61.5 53L63.5 55L65.5 56H66.5V57L66 58H64.5L62 56.5L59 58.5H58.5H58L57 57.5H53.5L51.5 60.5L51 61H47L44.5 64.5V65L47.5 67L45.5 69.5L43.5 69V68L41 66H39V66.5L41.5 68L40 69.5H39.5L37 68H35L34 69L36 71H38L39 71.5V74L37 76V77L37.5 78H34.5L32.5 80.5H31.5L30 82V84.5L31.5 85.5H33H36V87H37L37.5 87.5L37 88H34.5L34 89L33.5 90.5L35 91L37 90.5L38 90V88.5L41.5 89.5L44 88L45 86.5L46.5 87.5L48.5 89.5H50.5L51 90.5L49.5 93.5L49 95.5V97L51.5 99L55 101L56.5 102H57.5L58.5 101.5L59.5 100L60 99V98.5H61.5L64 98L65 99L64.5 100.5L64 101L63 102.5L62 104.5V106.5L63 108H65L66.5 107.5H67H67.5H68.5H70.5V108L69.5 109L67.5 110V112.5H68L69 114L72 114.5L73 115.5V118L71 121V122L71.5 122.5V123.5H72.5V121L74 119.5H76L78 121.5V123H77V125H78L79.5 127.5L80 132.5L79 133.5V139L80.5 137.5L81 136.5H84.5L85 137H86V137.5H82.5L81.5 139V140L83.5 140.5V142H85L85.5 141.5H87.5V142L85.5 145H81H80V150.5L80.5 151.5H81H81.5L82 152H82.5V152.5V153.5H83L83.5 154L84 154.5V155V157L83 158.5V159L85 161H86H86.5V162H87V163H87.5V162.5H88V162L89 161V159.5L87.5 158.5V157.5L88 156.5L88.5 154.5H90.5L91 154H93L93.5 154.5H94L96 152H97V152.5H98V153L97 154.5V155L97.5 156V157H95L94.5 156.5H92.5V157H92V157.5V158.5H90.5V159.5H92L90.5 162V163.5L91.5 165H96L99.5 161H103V160H104V155H107.5V154H112.5V151.5L106.5 149.5L106 149L106.5 148.5H108L110 148L111.5 146.5V145.5L110.5 144.5L110 145V146L108.5 147L107.5 146.5L107 145.5L107.5 145L108 144H107.5L106.5 144.5L106 144L105.5 139.5L105 138.5H103V136H106L106.5 139.5L107 140L108 141.5L109.5 142H111L112.5 141.5L113 140.5V138H114.5L116.5 140H117.5V137.5L118.5 137L118 136L117 134.5V133.5L117.5 133L118 132.5L116 130H118L118.5 128H120H120.5V126L122 125.5L123 126L124 127V128H125L126 127.5L126.5 128H129L129.5 127H131L132 127.5L132.5 128.5L130 131H128L127 131.5L126 133L123.5 136L123 137.5L124 138L126 138.5H127.5L131 133.5H134V120.5L132.5 118.5H130.5L129.5 117.5H130L131.5 117H132.5L134 116.5V108H132.5L131.5 108.5L129.5 110L128.5 111L127.5 111.5V110.5L128 110L128.5 109V108H129L129.5 107H132.5L134 108V107.274V91L133 90.5H132L131.5 88L132.5 85.5V80.5L132 78.5L129 76.5L126 75.5V73H127L130 74L132 73.5L134 72V43L133 42L131 39L128 36L123 33.5V32L119 31.5L117.5 31V30L120.5 27.5L122.5 28.5H124L127 24.5L126 24L125.5 22.5H127L128.5 23L130.5 22L132.5 19.5L133 16.5V15.5L128 12.5L127.5 10L124 11.5L123 16.5L124 16L126 15L127 16L126.5 17.5L129.5 19V19.5H125L122 21.5L121 23.5H118L114 22.5V21.5L116 19.5V17.5L113.5 15V13.5L115 11.5L116 9V6.5L113 4.5L112.5 1H108.5L108 4.5V6.5L106 6H104.5L102.5 4H101L99 4.5V7.5L100 8.5V9.5L99 10L96.5 8V4.5L97.5 4L98 3H96.5L94 1.5L94.5 0H90.5V1L89 3L88 3.5L87.5 3V1.5H87V1L87.5 0H30V6.5L31.5 11L36 12.5L41 9L45.5 11.5L46.5 10L46 8L46.5 5.5L49.5 3ZM129 104.5L131 105L131.5 103V100L131 98.5L130.5 97.5L130 96H124L122 92L121.5 91.5H118.5V90V89L117.5 88.5H117H116L115 89L114.5 89.5H114L113.5 88.5V87.5V86C113.5 85.6 112.833 85.5 112.5 85.5H111V87.5H109V88L108 88.5H107V89H108.5L109 89.5H110.5L111.5 90L111 90.5H110.5L110 91.5L111 92.5H112.5H113.5L115 94.5L116 94L116.5 95.5H115.5L115 97L113.5 98H112L112.5 99L113 101.5L113.5 102V103.5L112.5 104.5L111.5 105.5L112 106L114.5 107V106.247H115.5V108L114 111.5L116.5 112.5H119.5L120 112L119.5 107.5L118.5 104.5L122 103V104H124L125 101.5L126 102.5L127 104.5H129ZM80.5 93L80 92.5L78.5 91V89L80 87L81 80.5L80.5 78L79 75.5H78.5V74L80 70L80.5 68V66L77.5 60.5L78.5 56.5L80 54L82 53.5L82.5 54.5L84 55.5L83 56.5V58.5L87 61.5H89.5L91 63L92 63.5L94 62.5L96 63.5L97.5 64V65H98.5L101.5 66V69L100 70L98.5 69.5L95.5 69H94V70L95.5 73L95 76.5L96.5 76L97 75H98L97.5 76.5L97 86L96 85.5H93H92L93.5 86.5L95 88L94 89L92.5 86.5L92 85.5L91.5 84.5L89 83.5L86.5 83L86 86.5L88 87.5L87.5 88.5H84L84.5 91L83.5 92V93L84 94H82L81 95L80.5 93ZM108 81L104.5 83.5V80.5L108 81ZM102 91L103.5 89.5L100.5 89L99.5 91.5L100.5 92H102V91ZM109.5 94L111.5 96.5L109 98.5H108L106.5 96.5L109.5 94ZM105 106.5L104.5 105.5H107L109 107.5H105V106.5ZM68 102L69.5 101H71.5L71 103L70.5 104L68 103V102ZM60 89H58.5L58 90L57 91.5L54.5 92L53 91.5L52 90L52.5 88.5L53.5 86.5L54.5 85L57 84.5H59L60 85L61 87L60 89ZM49 75.5L50.5 74H51L52.5 75L53 76L52.5 76.5L52 77.5L51.5 77H51H50L48.5 76.5L49 75.5ZM79.5 31L80 11H82L85.5 15.5V16.5L84 20L88 20.5L90.5 22V23H83.5L84 27.5H85.5L85 29L82 31H81.2686L80.5 31.5L79.5 31ZM103 21L106 18.5L108.5 20L108 21L107 22.5L108.5 23L108 25H106.5V24.5H105V23.5L103 22.5V21ZM93 5L91.5 4.5V6L93 6.5L93.5 6L93 5ZM90 36L90.5 37V38.5L91.5 41.5L93 43.5L95 45.5H96.5V46L95.5 48.5L94.5 50L92.5 49V47.5L89 43L89.5 37L90 36ZM123 42.5V37.5L124 38.5L125 39L125.5 40V41.5H124L123 42.5ZM116 67L118 62H119.5L118.5 65.5L117 67L116.5 68.5L116 68V67ZM102 52L102.5 51L103 51.5L103.5 56L102 52ZM75 110L76 111V112L75 113L73.5 112.5L73 112L72.5 111L73.5 110H75ZM75.5 115H76.5L77.5 115.5L77 116.5L76 117L75.5 116V115ZM124 119.5L122 120.5L121 120L120 119.5H117.5L114.5 120.5V118V116.5V115H119.5L121 118H123.5H125.5L126 119L124 119.5ZM125 124V122.5L128 123L128.5 122L129.5 121.5V123L130.5 124.5H128.5L127 125.5H125V125L126 124.5L125 124ZM105 152.5H106L107 153.5L106.5 154H105.5L105 153.5V152.5ZM90.5 148V146.5L92.5 147L94 147.625L93 148H90.5ZM95.5 160L96 159.5H97.5L97 160.5L95.5 160Z" fill="#141414"/>
</g>
</svg>
