<svg width="24" height="24" viewBox="0 0 24 24" fill="none" xmlns="http://www.w3.org/2000/svg">
<rect width="24" height="24" fill="white"/>
<path d="M15.5596 12.0252C15.5045 11.9984 15.4486 11.9726 15.3919 11.9478C15.2932 10.0989 14.2996 9.04044 12.6312 9.02961C12.6236 9.02956 12.6161 9.02956 12.6085 9.02956C11.6106 9.02956 10.7807 9.46267 10.2698 10.2508L11.1874 10.8908C11.569 10.3021 12.1679 10.1766 12.609 10.1766C12.6141 10.1766 12.6192 10.1766 12.6242 10.1766C13.1736 10.1802 13.5881 10.3426 13.8564 10.6593C14.0517 10.8898 14.1823 11.2085 14.2469 11.6106C13.7599 11.5264 13.2331 11.5005 12.67 11.5333C11.0838 11.6263 10.064 12.5669 10.1325 13.8739C10.1672 14.5369 10.4921 15.1073 11.0472 15.4799C11.5165 15.7949 12.1209 15.9489 12.7491 15.9141C13.5787 15.8678 14.2295 15.546 14.6835 14.9575C15.0283 14.5107 15.2464 13.9316 15.3427 13.2019C15.7381 13.4445 16.0311 13.7637 16.1929 14.1475C16.468 14.7998 16.4841 15.8719 15.6238 16.7459C14.87 17.5115 13.964 17.8427 12.5947 17.853C11.0757 17.8415 9.92699 17.3462 9.18011 16.3808C8.48072 15.4769 8.11927 14.1712 8.10578 12.5C8.11927 10.8288 8.48072 9.52311 9.18011 8.61914C9.92699 7.65377 11.0757 7.15849 12.5946 7.14701C14.1246 7.15858 15.2934 7.65624 16.0688 8.62627C16.4491 9.10196 16.7357 9.70018 16.9247 10.3977L18 10.106C17.7709 9.24744 17.4105 8.50763 16.9199 7.89407C15.9258 6.65045 14.4718 6.01321 12.5984 6H12.5909C10.7213 6.01317 9.28359 6.65283 8.31775 7.9012C7.45828 9.0121 7.01494 10.5578 7.00005 12.4954L7 12.5L7.00005 12.5046C7.01494 14.4421 7.45828 15.9879 8.31775 17.0988C9.28359 18.3472 10.7213 18.9869 12.5909 19H12.5984C14.2606 18.9883 15.4322 18.5458 16.3974 17.5653C17.6602 16.2826 17.6222 14.6747 17.206 13.6877C16.9074 12.9798 16.3381 12.405 15.5596 12.0252ZM12.6897 14.7687C11.9945 14.8085 11.2722 14.4912 11.2366 13.8116C11.2102 13.3078 11.5893 12.7455 12.7324 12.6785C12.8633 12.6709 12.9917 12.6671 13.1179 12.6671C13.5331 12.6671 13.9215 12.7081 14.2747 12.7866C14.143 14.4591 13.3704 14.7307 12.6897 14.7687Z" fill="#242424"/>
</svg>
